<?xml version="1.0" encoding="utf-8"?>
<!-- Generator: Adobe Illustrator 26.0.1, SVG Export Plug-In . SVG Version: 6.00 Build 0)  -->
<svg version="1.1" id="Layer_1" xmlns="http://www.w3.org/2000/svg" xmlns:xlink="http://www.w3.org/1999/xlink" x="0px" y="0px"
	 viewBox="0 0 951.3 440.6" style="enable-background:new 0 0 951.3 440.6;" xml:space="preserve">
<style type="text/css">
	.st0{fill:#168AAD;}
	.st1{fill:#FBAD3B;}
	.st2{fill:#FFFFFF;}
</style>
<g>
	<path class="st1" d="M324.4,306.7c0.1-22.3-18-40.5-40.3-40.6c-14.1-0.1-26.5,7.1-33.8,17.9c-15.6,22-41.3,36.4-70.4,36.3
		c-47.4-0.2-85.7-38.8-85.5-86.2c0.2-47.4,38.8-85.7,86.2-85.5c29,0.1,54.6,14.7,70,36.8c0.3,0.4,0.6,0.8,0.9,1.2
		c0.1,0.2,0.2,0.3,0.3,0.4l0,0c7.3,10,19.1,16.5,32.4,16.6c22.3,0.1,40.4-17.9,40.5-40.2c0-8.7-2.7-16.8-7.4-23.4l0.1-0.1
		c-29.9-43.4-79.8-71.9-136.5-72.1C88.9,67.5,14,141.8,13.6,233.8c-0.4,92,73.9,166.9,166,167.3c55.3,0.2,104.4-26.6,134.9-68.1
		C320.6,326,324.4,316.8,324.4,306.7z"/>
	<g>
		<path class="st2" d="M394.2,87.3c-2.9,13.5-13.1,23.3-31.2,23.3c-22.9,0-33.7-16.2-33.7-36.8c0-19.8,11.2-37.6,34.5-37.6
			c19.2,0,28.6,11.3,30.3,23.4h-15.6c-1.5-5.6-5.4-11.1-15.2-11.1c-12.9,0-17.9,11.6-17.9,24.7c0,12.2,4.3,25.1,18.3,25.1
			c10.2,0,13.4-6.8,14.8-11H394.2z"/>
		<path class="st2" d="M406.2,37.3h15.6v28.2h29.1V37.3h15.6v72.2h-15.6V78.3h-29.1v31.3h-15.6V37.3z"/>
		<path class="st2" d="M533.6,78.4H499v18.4h38.1l-1.9,12.8h-51.4V37.3h51.2v12.8H499v15.5h34.5V78.4z"/>
		<path class="st2" d="M609.2,82.4c0-12.3,0.2-26.1,0.5-34.3h-0.5c-3.4,14.7-10.6,38.8-17.5,61.4h-13.3
			c-5.3-19.8-12.7-47.2-15.9-61.6h-0.5c0.6,8.5,0.9,23.3,0.9,35.7v25.9h-14.2V37.3h23.2c5.6,18.9,11.9,42.6,14.1,53.3h0.1
			c1.8-9.5,9.7-34.8,15.7-53.3h22.4v72.2h-15.1V82.4z"/>
		<path class="st2" d="M657.2,37.3v72.2h-15.6V37.3H657.2z"/>
		<path class="st2" d="M735.7,87.3c-2.9,13.5-13.1,23.3-31.2,23.3c-22.9,0-33.7-16.2-33.7-36.8c0-19.8,11.2-37.6,34.5-37.6
			c19.2,0,28.6,11.3,30.3,23.4H720c-1.5-5.6-5.4-11.1-15.2-11.1c-12.9,0-17.9,11.6-17.9,24.7c0,12.2,4.3,25.1,18.3,25.1
			c10.2,0,13.4-6.8,14.8-11H735.7z"/>
		<path class="st2" d="M761.2,92.8l-5.6,16.7h-15.4l24.5-72.2h19.6l25.6,72.2h-16.4l-5.9-16.7H761.2z M784.3,80
			c-5.1-15.2-8.4-25-10.1-31.5H774c-1.8,7.1-5.4,18.5-9.5,31.5H784.3z"/>
		<path class="st2" d="M819.3,37.3h15.6v59.4h36l-1.8,12.8h-49.8V37.3z"/>
		<path class="st2" d="M892.9,88.4c1.6,7.3,6.9,10.4,15.2,10.4c8.3,0,11.9-3.3,11.9-8.6c0-5.9-3.5-8.4-15.8-11.3
			c-19.7-4.6-24.5-11.8-24.5-21.5c0-12.6,9.4-21.1,26.5-21.1c19.2,0,26.8,10.3,27.9,20.9h-15.7c-0.8-4.4-3.2-9.3-12.5-9.3
			c-6.3,0-10.2,2.6-10.2,7.7c0,5,3.1,7.1,14.7,9.8c21,5,25.6,12.8,25.6,23c0,13.2-10,22.2-29.1,22.2c-18.3,0-28-9-29.7-22.2H892.9z"
			/>
		<path class="st2" d="M643.6,371.3c-2.2,10.1-9.8,17.5-23.4,17.5c-17.2,0-25.3-12.2-25.3-27.6c0-14.8,8.4-28.1,25.9-28.1
			c14.4,0,21.4,8.5,22.7,17.5h-11.7c-1.1-4.2-4-8.3-11.4-8.3c-9.7,0-13.4,8.7-13.4,18.5c0,9.2,3.2,18.8,13.7,18.8
			c7.6,0,10.1-5.1,11.1-8.3H643.6z"/>
		<path class="st2" d="M689.6,367.6c0,12.3-7.4,21.3-20.2,21.3c-12.6,0-20-9-20-21.1c0-12.5,7.6-21.4,20.5-21.4
			C681.9,346.4,689.6,354.8,689.6,367.6z M660.8,367.7c0,7.8,3.4,12.5,8.8,12.5c5.5,0,8.6-4.6,8.6-12.4c0-8.5-3.1-12.5-8.7-12.5
			C664.3,355.2,660.8,359.1,660.8,367.7z"/>
		<path class="st2" d="M697.3,357.8c0-3.5,0-7-0.1-10.5H708c0.1,1,0.4,3.3,0.4,4.8c2.1-3,5.3-5.8,11.3-5.8c5.8,0,9.1,3,10.5,6.2
			c2.4-3.3,5.9-6.2,12.5-6.2c7.1,0,12.9,4.4,12.9,14.9V388h-11v-25.3c0-3.7-1.3-7.3-5.9-7.3c-4.8,0-6.6,3.1-6.6,9.3V388h-11v-24.9
			c0-4.2-1-7.6-5.8-7.6c-4.6,0-6.7,2.8-6.7,9.8V388h-11.1V357.8z"/>
		<path class="st2" d="M776.9,384.4v19.2h-11.2v-46.4c0-3.3,0-6.5-0.1-9.8h10.9c0.2,1.1,0.4,3.6,0.4,5.1c1.7-3,5.4-6,11.8-6
			c9.1,0,16.2,7.6,16.2,20.2c0,14.3-7.9,22.3-17.7,22.3C781.5,388.9,778.5,386.8,776.9,384.4z M793.5,367.1c0-7.5-3-11.7-8.4-11.7
			c-6.4,0-8.7,4.1-8.7,12.3c0,7.8,2.1,12.3,8.2,12.3C790.6,380,793.5,375.4,793.5,367.1z"/>
		<path class="st2" d="M846.2,377.5c0,3.9,0.3,9.5,0.6,10.5H836c-0.3-0.8-0.5-2.9-0.6-4c-1.5,2.3-4.2,4.9-11.4,4.9
			c-9.8,0-13.9-6.4-13.9-12.7c0-9.3,7.4-13.5,19.4-13.5c2,0,4.4,0,5.8,0v-2.5c0-2.9-1-5.7-6.3-5.7c-4.8,0-5.8,2-6.3,5h-10.7
			c0.6-7.2,5.1-13.1,17.4-13c10.9,0.1,16.8,4.3,16.8,14V377.5z M835.2,369.5c-0.9,0-3.1,0-4.6,0c-6.8,0-9.3,2.1-9.3,6
			c0,2.9,1.8,5.4,5.9,5.4c7.2,0,8-5,8-10.3V369.5z"/>
		<path class="st2" d="M856.5,357.6c0-3.5,0-7.2-0.1-10.2h10.9c0.2,1,0.4,3.9,0.4,5.2c1.4-2.6,4.7-6.1,11.8-6.1
			c8.2,0,13.5,5.5,13.5,15.7V388h-11.3v-24.6c0-4.6-1.5-7.9-6.5-7.9c-4.8,0-7.5,2.7-7.5,9.8V388h-11.3V357.6z"/>
		<path class="st2" d="M909.7,347.3c4.2,14,7.9,26.5,8.5,30.3h0.1c0.9-4.1,3.3-13.2,8.1-30.3h11.2L924,389.2
			c-3.9,11.7-7.1,15.2-16.9,15.2c-1,0-3.3-0.1-5.3-0.3v-9c0.8,0.1,2,0.2,2.9,0.2c4.1,0,6.2-1.4,7.7-5.9l-14.8-41.9H909.7z"/>
		<path class="st1" d="M510.5,207.6h-31.6c-4.4-18.7-15.9-28-34.5-28c-14,0-24.8,5.6-32.3,16.7c-6.5,9.8-9.7,22.8-9.7,39.1
			c0,18.4,4.1,32.4,12.2,42c7.1,8.3,16.6,12.4,28.7,12.4c10.4,0,18.7-2.7,24.8-8.1c6.2-5.4,9.8-13.2,10.8-23.3h32.3
			c-1.1,19.6-8.6,34.7-22.6,45.4c-12,9.3-27.5,14-46.3,14c-24.1,0-42.8-8.4-56-25.3c-11.4-14.6-17.2-33.9-17.2-57.8
			c0-27.4,7.5-48.6,22.6-63.7c13.1-13.2,30.2-19.9,51.3-19.9c25,0,43.9,8.4,56.7,25.1C506,184.5,509.6,195,510.5,207.6z"/>
		<path class="st1" d="M591.3,151.1c22.9,0,41.2,7.3,55.1,21.9c15.1,15.8,22.6,36.3,22.6,61.4c0,24.8-7.5,45.3-22.6,61.4
			c-13.7,14.6-32.1,21.9-55.1,21.9c-23.2,0-41.6-7.3-55.3-21.9c-15.1-16.1-22.6-36.6-22.6-61.4S521,189.1,536,173
			C549.9,158.4,568.3,151.1,591.3,151.1z M591.3,179.6c-14.5,0-25.8,5.6-34.1,16.9c-7.1,9.8-10.6,22.4-10.6,37.9
			c0,17.8,4.6,31.7,13.8,41.8c8,8.7,18.3,13.1,30.9,13.1c14.5,0,25.7-5.6,33.9-16.9c7.1-9.8,10.6-22.4,10.6-37.9
			c0-17.8-4.6-31.7-13.8-41.8C614.1,183.9,603.8,179.6,591.3,179.6z"/>
		<path class="st1" d="M706.5,251.2v64.1h-33.2V153.7H760c13.7,0,24.2,3.7,31.4,11.1c8.1,8.3,12.2,19.2,12.2,32.7
			c0,19.6-9.2,32.9-27.5,40c10.4,4.1,16.7,9.1,19,15.1c1.7,4.4,2.9,18.9,3.6,43.6c0.1,6.2,2.5,10.5,7,13.1v6.1h-35.7
			c-3.3-6.2-5-15.3-5-27.3c0-3,0.1-6.7,0.2-11.1c0-3,0-5.2,0-6.5c0-12.8-6.9-19.2-20.5-19.2H706.5z M706.5,223.4h40.2
			c8.4,0,14.3-1.4,17.6-4.1c4.1-3.5,6.1-9.2,6.1-17.2c0-7.7-2-13.2-6.1-16.5c-3.5-2.9-9.3-4.3-17.6-4.3h-40.2V223.4z"/>
		<path class="st1" d="M843.4,287.6v-28.2v-62.6v-15.3H927v-27.8H810.2v161.7H931v-27.8H843.4z"/>
	</g>
	<polyline class="st1" points="913.7,243.9 931,235.2 913.7,224.9 853.6,224.9 846,243.9 	"/>
	<path class="st1" d="M359.7,220.1H231v-9.5c0-3.5-1.9-6.7-4.9-8.5l-41-23.6c-3-1.8-6.8-1.8-9.8,0l-41,23.6c-3,1.8-4.9,5-4.9,8.5
		v47.3c0,3.5,1.9,6.7,4.9,8.5l41,23.6c3,1.8,6.8,1.8,9.8,0l41-23.6c3-1.8,4.9-5,4.9-8.5v-9.5h128.7V220.1z"/>
</g>
</svg>
